<svg width="24" height="24" viewBox="0 0 24 24" fill="none" xmlns="http://www.w3.org/2000/svg">
<path d="M13.3256 12.0008L23.7252 1.60121C24.0913 1.23507 24.0913 0.641446 23.7252 0.275353C23.359 -0.0907404 22.7654 -0.0907873 22.3993 0.275353L11.9997 10.6749L1.60022 0.275353C1.23408 -0.0907873 0.640454 -0.0907873 0.274361 0.275353C-0.0917323 0.641493 -0.0917791 1.23512 0.274361 1.60121L10.6739 12.0007L0.274361 22.4003C-0.0917791 22.7665 -0.0917791 23.3601 0.274361 23.7262C0.457407 23.9092 0.69736 24.0007 0.937313 24.0007C1.17727 24.0007 1.41717 23.9092 1.60026 23.7262L11.9997 13.3266L22.3993 23.7262C22.5823 23.9092 22.8223 24.0007 23.0622 24.0007C23.3022 24.0007 23.5421 23.9092 23.7252 23.7262C24.0913 23.36 24.0913 22.7664 23.7252 22.4003L13.3256 12.0008Z" fill="black"/>
</svg>
