<svg width="52" height="52" viewBox="0 0 52 52" fill="none" xmlns="http://www.w3.org/2000/svg">
<g clip-path="url(#clip0)">
<path d="M50.4766 18.3829H45.115L33.3849 3.72028C32.8594 3.06347 31.9008 2.95673 31.2437 3.48242C30.5867 4.008 30.4801 4.96665 31.0058 5.62366L41.2131 18.3829H10.7869L20.9943 5.62366C21.5199 4.96665 21.4133 4.0079 20.7564 3.48242C20.0993 2.95673 19.1407 3.06337 18.6152 3.72028L6.88502 18.3829H1.52344C0.682094 18.3829 0 19.065 0 19.9063V22.9532C0 23.7945 0.682094 24.4766 1.52344 24.4766H50.4766C51.3179 24.4766 52 23.7945 52 22.9532V19.9063C52 19.065 51.3179 18.3829 50.4766 18.3829Z" fill="#1E1E1E"/>
<path d="M9.19926 47.7467C9.38613 48.4007 9.98393 48.8516 10.6641 48.8516H41.336C42.0161 48.8516 42.6139 48.4007 42.8008 47.7467L48.5788 27.5234H3.42126L9.19926 47.7467ZM32.9778 40.984L34.5012 31.8434C34.6395 31.0134 35.4244 30.4524 36.2544 30.5911C37.0844 30.7295 37.645 31.5143 37.5067 32.3443L35.9832 41.4849C35.859 42.2301 35.2136 42.7582 34.4823 42.7582C34.3991 42.7582 34.3148 42.7514 34.23 42.7372C33.4001 42.5989 32.8395 41.8139 32.9778 40.984ZM24.4766 32.0938C24.4766 31.2524 25.1587 30.5703 26 30.5703C26.8414 30.5703 27.5235 31.2524 27.5235 32.0938V41.2344C27.5235 42.0757 26.8414 42.7578 26 42.7578C25.1587 42.7578 24.4766 42.0757 24.4766 41.2344V32.0938ZM15.8472 30.5911C16.6773 30.4529 17.4621 31.0134 17.6004 31.8434L19.1238 40.984C19.2622 41.8139 18.7015 42.5989 17.8716 42.7372C17.7869 42.7513 17.7025 42.7582 17.6193 42.7582C16.8879 42.7582 16.2426 42.2302 16.1184 41.4849L14.595 32.3443C14.4566 31.5143 15.0173 30.7294 15.8472 30.5911Z" fill="#1E1E1E"/>
</g>
<defs>
<clipPath id="clip0">
<rect width="52" height="52" fill="white"/>
</clipPath>
</defs>
</svg>
